<?xml version="1.0" encoding="utf-8"?>
<!-- Generator: Adobe Illustrator 16.0.1, SVG Export Plug-In . SVG Version: 6.00 Build 0)  -->
<!DOCTYPE svg PUBLIC "-//W3C//DTD SVG 1.0//EN" "http://www.w3.org/TR/2001/REC-SVG-20010904/DTD/svg10.dtd">
<svg version="1.0" id="Layer_1" xmlns="http://www.w3.org/2000/svg" xmlns:xlink="http://www.w3.org/1999/xlink" x="0px" y="0px"
	 width="240px" height="240px" viewBox="0 0 240 240" enable-background="new 0 0 240 240" xml:space="preserve">
<g>
	<path d="M120,0C53.726,0,0,53.726,0,120c0,66.275,53.726,120,120,120s120-53.726,120-120C240,53.726,186.273,0,120,0z
		 M39.704,174.298c0,0.456-0.37,0.826-0.825,0.826h-0.185c-0.455,0-0.826-0.37-0.826-0.826v-6.256l-2.471,3.346
		c-0.177,0.246-0.494,0.406-0.803,0.406c-0.339,0-0.656-0.16-0.835-0.406l-2.469-3.346v6.256c0,0.456-0.37,0.826-0.825,0.826h-0.185
		c-0.456,0-0.827-0.37-0.827-0.826v-8.999c0-0.44,0.358-0.798,0.798-0.798c0.437,0,0.835,0.211,1.044,0.533l3.271,4.457l3.28-4.473
		c0.244-0.32,0.638-0.518,1.034-0.518c0.468,0,0.825,0.357,0.825,0.798V174.298z M45.838,165.399c0,0.455-0.372,0.826-0.827,0.826
		h-0.299v7.174h0.299c0.446,0,0.827,0.379,0.827,0.826v0.072c0,0.456-0.372,0.826-0.827,0.826h-2.451
		c-0.456,0-0.825-0.37-0.825-0.826v-0.072c0-0.447,0.378-0.826,0.825-0.826h0.314v-7.174h-0.314c-0.447,0-0.825-0.381-0.825-0.826
		v-0.073c0-0.446,0.378-0.825,0.825-0.825h2.451c0.446,0,0.827,0.379,0.827,0.825V165.399z M52.499,173.556
		c0.847,0,1.641-0.196,2.427-0.602c0.119-0.064,0.248-0.097,0.38-0.097c0.288,0,0.552,0.157,0.708,0.421l0.026,0.052
		c0.091,0.169,0.11,0.395,0.046,0.604c-0.061,0.205-0.197,0.374-0.372,0.467c-1,0.573-2.084,0.864-3.215,0.864
		c-3.327,0-5.312-2.032-5.312-5.438c0-3.424,1.985-5.47,5.312-5.47c1.157,0,2.196,0.235,3.177,0.718
		c0.396,0.199,0.57,0.711,0.375,1.096c-0.148,0.314-0.445,0.502-0.77,0.502c-0.105,0-0.21-0.019-0.309-0.058
		c-0.914-0.374-1.696-0.546-2.474-0.546c-2.189,0-3.445,1.369-3.445,3.758C49.054,172.199,50.31,173.556,52.499,173.556z
		 M67.245,174.298c0,0.456-0.37,0.826-0.825,0.826h-0.185c-0.456,0-0.825-0.37-0.825-0.826v-3.658H59.94v3.658
		c0,0.456-0.368,0.826-0.825,0.826h-0.185c-0.455,0-0.826-0.37-0.826-0.826v-8.972c0-0.446,0.377-0.825,0.826-0.825h0.185
		c0.448,0,0.825,0.379,0.825,0.825v3.602h5.469v-3.602c0-0.446,0.377-0.825,0.825-0.825h0.185c0.448,0,0.825,0.379,0.825,0.825
		V174.298z M75.928,168.845c0.456,0,0.825,0.371,0.825,0.826c0,0.504-0.378,0.885-0.825,0.885h-4.259v2.859h5.282
		c0.456,0,0.827,0.371,0.827,0.826c0,0.513-0.372,0.883-0.827,0.883h-6.292c-0.456,0-0.827-0.37-0.827-0.826v-8.972
		c0-0.446,0.379-0.825,0.827-0.825h6.292c0.448,0,0.827,0.379,0.827,0.825c0,0.506-0.379,0.885-0.827,0.885h-5.282v2.634H75.928z
		 M86.687,175.124h-6.121c-0.456,0-0.827-0.37-0.827-0.826v-8.972c0-0.446,0.379-0.825,0.827-0.825h0.185
		c0.447,0,0.826,0.379,0.826,0.825v8.089h5.11c0.45,0,0.827,0.38,0.827,0.826C87.514,174.754,87.143,175.124,86.687,175.124z
		 M95.954,175.124h-6.124c-0.456,0-0.827-0.37-0.827-0.826v-8.972c0-0.446,0.378-0.825,0.827-0.825h0.186
		c0.446,0,0.826,0.379,0.826,0.825v8.089h5.111c0.455,0,0.825,0.371,0.825,0.826C96.779,174.754,96.409,175.124,95.954,175.124z
		 M104.365,168.845c0.456,0,0.827,0.371,0.827,0.826c0,0.504-0.38,0.885-0.827,0.885h-4.257v2.859h5.283
		c0.448,0,0.826,0.38,0.826,0.826c0,0.513-0.37,0.883-0.826,0.883h-6.294c-0.456,0-0.825-0.37-0.825-0.826v-8.972
		c0-0.446,0.378-0.825,0.825-0.825h6.294c0.448,0,0.826,0.379,0.826,0.825c0,0.506-0.378,0.885-0.826,0.885h-5.283v2.634H104.365z
		 M121.679,174.798c-0.082,0.197-0.273,0.326-0.487,0.326h-0.613c-0.385,0-0.811-0.177-1.086-0.451l-4.141-4.043
		c-0.065-0.064-0.165-0.104-0.255-0.104h-0.984v3.771c0,0.456-0.37,0.826-0.825,0.826h-0.184c-0.456,0-0.826-0.37-0.826-0.826
		v-8.972c0-0.446,0.377-0.825,0.826-0.825h0.184c0.448,0,0.825,0.379,0.825,0.825v3.489h0.998c0.087,0,0.194-0.039,0.239-0.09
		l3.949-3.777c0.294-0.277,0.713-0.447,1.096-0.447h0.654c0.209,0,0.396,0.127,0.477,0.321c0.083,0.196,0.038,0.426-0.115,0.579
		l-4.544,4.264l4.695,4.54C121.719,174.364,121.764,174.595,121.679,174.798z M132.91,174.804c-0.098,0.197-0.296,0.32-0.52,0.32
		h-0.398c-0.415,0-0.829-0.219-1.055-0.559l-2.075-2.94c-0.035-0.056-0.079-0.077-0.14-0.077c-0.307,0.016-0.612,0.031-0.931,0.031
		h-2.577v2.719c0,0.456-0.369,0.826-0.825,0.826h-0.186c-0.455,0-0.826-0.37-0.826-0.826v-8.972c0-0.446,0.378-0.825,0.826-0.825
		h3.587c3.354,0,4.785,1.061,4.785,3.546c0,1.532-0.614,2.543-1.878,3.083l2.16,3.064
		C132.988,174.366,133.012,174.604,132.91,174.804z M138.451,165.399c0,0.455-0.369,0.826-0.824,0.826h-0.301v7.174h0.301
		c0.448,0,0.824,0.379,0.824,0.826v0.072c0,0.456-0.369,0.826-0.824,0.826h-2.449c-0.455,0-0.826-0.37-0.826-0.826v-0.072
		c0-0.447,0.379-0.826,0.826-0.826h0.313v-7.174h-0.313c-0.455,0-0.826-0.371-0.826-0.826v-0.073c0-0.446,0.379-0.825,0.826-0.825
		h2.449c0.448,0,0.824,0.379,0.824,0.825V165.399z M143.662,175.266c-1.211,0-2.434-0.267-3.354-0.731
		c-0.191-0.104-0.336-0.291-0.399-0.52c-0.057-0.203-0.038-0.409,0.048-0.576l0.029-0.067c0.158-0.284,0.435-0.454,0.739-0.454
		c0.128,0,0.255,0.029,0.38,0.086c0.801,0.352,1.73,0.553,2.557,0.553c1.104,0,2.293-0.471,2.293-1.507
		c0-1.11-0.824-1.329-2.166-1.593l-0.258-0.051c-1.695-0.359-3.615-0.767-3.615-3.112c0-1.81,1.453-2.936,3.787-2.936
		c1.117,0,2.217,0.241,3.27,0.714c0.185,0.082,0.339,0.249,0.414,0.458c0.076,0.209,0.066,0.44-0.029,0.628
		c-0.143,0.32-0.432,0.51-0.764,0.51c-0.115,0-0.229-0.021-0.338-0.067c-0.868-0.356-1.703-0.53-2.553-0.53
		c-0.576,0-1.921,0.117-1.921,1.224c0,0.854,0.752,1.046,1.978,1.287l0.209,0.042c1.728,0.355,3.85,0.79,3.85,3.427
		C147.818,173.942,146.11,175.266,143.662,175.266z M136.515,99.776c-2.083,0.177-4.19,0.028-6.571,0.028
		c0,12.934,0,25.598,0,38.437c-2.361,0-4.435,0-6.864,0c0-16.315,0.102-35.753,0.163-54.01c0-3.396,0-6.789,0-10.183
		c-0.218-0.099-0.436-0.196-0.654-0.294c-0.651,0.827-1.327,1.633-1.946,2.482c-7.53,10.33-15.05,20.668-22.578,31.001
		c-2.321,3.187-5.443,3.166-7.793-0.029c-8.197-11.145-16.397-22.287-25.017-34.005c0,21.355,0,42.067,0,62.987
		c-2.465,0-4.611,0-7.006,0c0-23.356,0-46.623,0-70.105c-5.388,0-10.565-0.353-15.666,0.117c-3.663,0.34-5.681,4.167-5.266,8.387
		c0.333,3.399,3.177,6.194,6.671,6.445c1.241,0.089,2.516,0.062,3.746-0.117c1.218-0.177,2.401-0.612,3.847-0.999
		c0.651,1.537,1.312,3.097,1.961,4.625c-3.75,3.577-12.816,3.688-17.827-0.031c-4.499-3.338-6.58-9.448-4.853-15.196
		c1.778-5.921,6.831-9.593,13.492-9.676c5.585-0.068,11.176,0.1,16.756-0.088c2.213-0.075,3.461,0.722,4.696,2.446
		c9.017,12.579,18.124,25.089,27.205,37.619c0.273,0.375,0.568,0.735,1.14,1.467c7.227-9.938,14.234-19.572,21.24-29.208
		c2.036-2.798,4.33-5.449,6.032-8.439c1.958-3.442,4.506-4.701,8.502-3.486c0,5.857,0,11.724,0,17.598c0,5.129,0,10.27,0,15.411
		c8.854,2.323,15.779-0.525,21.959-6.668c6.937-6.897,13.403-14.041,17.468-23.085c0.323-0.719,1.449-1.404,2.275-1.508
		c1.787-0.229,3.622-0.071,5.484-0.071c-2.358,10.056-12.812,22.935-28.098,34.65c8.203,5.683,12.049,14.108,16.227,22.347
		c3.682,7.265,7.328,14.574,11.55,21.524c3.515,5.782,8.792,9.571,15.823,10.417c6.918,0.832,11.717-4.562,9.529-10.809
		c-1.516-4.328-5.91-5.809-11.066-3.703c-0.967,0.395-1.887,0.898-3.027,1.447c-1.08-1.457-2.148-2.892-3.249-4.369
		c4.761-4.016,10.067-5.007,15.772-3.43c6.328,1.75,9.84,7.717,9.069,14.863c-0.658,6.125-5.921,11.223-12.254,11.913
		c-12.046,1.315-20.741-4.343-26.851-13.935c-4.827-7.575-8.572-15.833-12.883-23.744c-2.154-3.954-4.33-7.916-6.791-11.68
		C147.529,102.021,142.859,99.236,136.515,99.776z M157.725,166.211h-3.16v8.087c0,0.456-0.37,0.826-0.825,0.826h-0.185
		c-0.457,0-0.826-0.37-0.826-0.826v-8.087h-3.161c-0.448,0-0.826-0.379-0.826-0.827c0-0.504,0.378-0.883,0.826-0.883h8.157
		c0.449,0,0.827,0.379,0.827,0.825C158.552,165.832,158.174,166.211,157.725,166.211z M166.109,168.845
		c0.455,0,0.826,0.371,0.826,0.826c0,0.504-0.379,0.885-0.826,0.885h-4.258v2.859h5.281c0.458,0,0.827,0.371,0.827,0.826
		c0,0.513-0.369,0.883-0.827,0.883h-6.293c-0.455,0-0.826-0.37-0.826-0.826v-8.972c0-0.446,0.38-0.825,0.826-0.825h6.293
		c0.449,0,0.827,0.379,0.827,0.825c0,0.506-0.378,0.885-0.827,0.885h-5.281v2.634H166.109z M179.305,174.298
		c0,0.456-0.371,0.826-0.826,0.826h-0.185c-0.407,0-0.828-0.207-1.073-0.527l-5.463-6.984v6.686c0,0.456-0.37,0.826-0.826,0.826
		h-0.185c-0.456,0-0.827-0.37-0.827-0.826v-8.972c0-0.446,0.381-0.825,0.827-0.825h0.185c0.406,0,0.826,0.207,1.074,0.527
		l5.461,6.971v-6.673c0-0.446,0.379-0.825,0.827-0.825h0.185c0.449,0,0.826,0.379,0.826,0.825V174.298z M185.053,175.266
		c-1.213,0-2.434-0.267-3.353-0.731c-0.194-0.104-0.337-0.291-0.4-0.52c-0.056-0.201-0.038-0.409,0.048-0.576l0.028-0.067
		c0.158-0.284,0.435-0.454,0.74-0.454c0.126,0,0.255,0.029,0.379,0.086c0.8,0.352,1.733,0.553,2.558,0.553
		c1.103,0,2.291-0.471,2.291-1.507c0-1.11-0.822-1.327-2.164-1.593l-0.258-0.051c-1.693-0.359-3.613-0.766-3.613-3.112
		c0-1.81,1.45-2.936,3.785-2.936c1.118,0,2.217,0.241,3.268,0.714c0.187,0.082,0.34,0.248,0.414,0.455
		c0.079,0.212,0.066,0.441-0.027,0.631c-0.143,0.32-0.432,0.51-0.764,0.51c-0.115,0-0.23-0.021-0.34-0.067
		c-0.867-0.356-1.702-0.53-2.551-0.53c-0.578,0-1.921,0.117-1.921,1.224c0,0.854,0.752,1.046,1.978,1.287l0.209,0.042
		c1.727,0.355,3.852,0.79,3.852,3.427C189.211,173.942,187.5,175.266,185.053,175.266z M197.352,168.845
		c0.455,0,0.826,0.371,0.826,0.826c0,0.504-0.381,0.885-0.826,0.885h-4.258v2.859h5.281c0.457,0,0.826,0.371,0.826,0.826
		c0,0.513-0.369,0.883-0.826,0.883h-6.293c-0.456,0-0.826-0.37-0.826-0.826v-8.972c0-0.446,0.379-0.825,0.826-0.825h6.293
		c0.449,0,0.826,0.379,0.826,0.825c0,0.506-0.377,0.885-0.826,0.885h-5.281v2.634H197.352z M209.719,175.124h-0.184
		c-0.407,0-0.828-0.207-1.073-0.527L203,167.612v6.686c0,0.456-0.371,0.826-0.826,0.826h-0.186c-0.455,0-0.827-0.37-0.827-0.826
		v-8.972c0-0.446,0.38-0.825,0.827-0.825h0.186c0.405,0,0.826,0.207,1.072,0.527l5.463,6.971v-6.673
		c0-0.446,0.379-0.825,0.826-0.825h0.184c0.449,0,0.828,0.379,0.828,0.825v8.972C210.547,174.754,210.175,175.124,209.719,175.124z"
		/>
	<path d="M127.765,166.226h-2.55v3.644h2.55c2.596,0,2.947-0.921,2.947-1.822C130.712,166.954,130.21,166.226,127.765,166.226z"/>
	<path d="M127.765,170.197h-2.592c-0.156,0-0.286-0.13-0.286-0.284v-3.731c0-0.157,0.129-0.284,0.286-0.284h2.592
		c2.378,0,3.275,0.668,3.275,2.149C131.04,169.458,130.143,170.197,127.765,170.197z"/>
</g>
</svg>
